<?xml version="1.0" ?>
    <!DOCTYPE svg  PUBLIC '-//W3C//DTD SVG 1.1//EN'  'http://www.w3.org/Graphics/SVG/1.1/DTD/svg11.dtd'>
<svg title="Updates" height="512px" style="enable-background:new 0 0 512 512;" version="1.1" viewBox="0 0 512 512" width="512px" xml:space="preserve" xmlns="http://www.w3.org/2000/svg" xmlns:xlink="http://www.w3.org/1999/xlink">
    <g id="A_-_6_x2C__chat_x2C__sms_x2C__message_x2C__write">
    <g>
    <rect height="23.792" width="23.751" x="164.624" y="182.75"/>
    <rect height="23.796" width="23.751" x="164.624" y="231.665"/>
    <rect height="23.709" width="23.751" x="164.624" y="280.584"/>
    <path d="M104.756,118.262c0-1.811,1.469-3.28,3.28-3.28h327.27V97.793H78.374V320.43h26.382V118.262z"/>
    <path d="M43.752,372.377v14.048c0,2.71,2.252,4.999,4.918,4.999h19.383v-23.963H48.67    C45.959,367.461,43.752,369.666,43.752,372.377z"/>
    <path d="M234.198,382.68H100.596c-1.811,0-3.28-1.469-3.28-3.279c0-1.813,1.469-3.28,3.28-3.28h133.602v-8.659H87.152v23.963    h147.045V382.68z"/>
    <rect height="23.963" width="5.979" x="74.613" y="367.461"/>
    <polygon points="254.221,367.461 240.758,367.461 240.758,391.424 254.217,391.424 279.393,379.407   "/>
    <path d="M438.586,121.542H111.315V323.71v20.386h256.315c1.109,0,2.145,0.561,2.75,1.49l29.776,45.709l11.671-44.746    c0.377-1.444,1.681-2.453,3.174-2.453h53.246V121.542H438.586z M207.293,183.296h48.247c1.811,0,3.279,1.469,3.279,3.28    c0,1.812-1.468,3.28-3.279,3.28h-48.247c-1.812,0-3.28-1.468-3.28-3.28C204.013,184.765,205.481,183.296,207.293,183.296z     M194.935,307.573c0,1.812-1.469,3.28-3.28,3.28h-30.311c-1.811,0-3.28-1.469-3.28-3.28v-30.269c0-1.813,1.469-3.28,3.28-3.28    h30.311c1.811,0,3.28,1.468,3.28,3.28V307.573z M194.935,258.741c0,1.811-1.469,3.279-3.28,3.279h-30.311    c-1.811,0-3.28-1.469-3.28-3.279v-30.356c0-1.811,1.469-3.28,3.28-3.28h30.311c1.811,0,3.28,1.469,3.28,3.28V258.741z     M194.935,209.821c0,1.812-1.469,3.28-3.28,3.28h-30.311c-1.811,0-3.28-1.468-3.28-3.28V179.47c0-1.811,1.469-3.28,3.28-3.28    h30.311c1.811,0,3.28,1.469,3.28,3.28V209.821z M354.633,303.829h-147.34c-1.812,0-3.28-1.469-3.28-3.279    c0-1.812,1.468-3.28,3.28-3.28h147.34c1.813,0,3.28,1.469,3.28,3.28C357.913,302.36,356.445,303.829,354.633,303.829z     M204.013,284.409c0-1.811,1.468-3.279,3.28-3.279h48.247c1.811,0,3.279,1.469,3.279,3.279c0,1.813-1.468,3.28-3.279,3.28h-48.247    C205.481,287.689,204.013,286.222,204.013,284.409z M354.633,254.911h-147.34c-1.812,0-3.28-1.468-3.28-3.28    c0-1.811,1.468-3.28,3.28-3.28h147.34c1.813,0,3.28,1.469,3.28,3.28C357.913,253.443,356.445,254.911,354.633,254.911z     M204.013,235.495c0-1.811,1.468-3.28,3.28-3.28h48.247c1.811,0,3.279,1.469,3.279,3.28c0,1.812-1.468,3.28-3.279,3.28h-48.247    C205.481,238.774,204.013,237.307,204.013,235.495z M354.633,205.996h-147.34c-1.812,0-3.28-1.469-3.28-3.28    c0-1.812,1.468-3.28,3.28-3.28h147.34c1.813,0,3.28,1.468,3.28,3.28C357.913,204.527,356.445,205.996,354.633,205.996z"/><path d="M353.879,379.099c-0.906-1.569-2.911-2.105-4.48-1.201c-1.568,0.906-2.106,2.912-1.201,4.48l14.597,25.269H133.965    c-1.812,0-3.28,1.469-3.28,3.28c0,1.811,1.468,3.279,3.28,3.279h234.509c1.173,0,2.256-0.625,2.842-1.64    c0.585-1.015,0.585-2.266,0-3.281L353.879,379.099z"/>
    </g>
    </g>
    <g id="Layer_1"/>
</svg>